<?xml version="1.0" encoding="utf-8"?><!-- Generator: Adobe Illustrator 19.2.1, SVG Export Plug-In . SVG Version: 6.00 Build 0) --><svg version="1.1" id="Layer_1" xmlns="http://www.w3.org/2000/svg" xmlns:xlink="http://www.w3.org/1999/xlink" x="0px" y="0px" viewBox="0 0 40 40" style="enable-background:new 0 0 40 40;" xml:space="preserve"><style type="text/css">.st0{fill:#02B3E4;}</style><g id="_x31_20-slate"></g><g id="_x34_80-wordmark-white"></g><g id="_x34_80-wordmark-blue"></g><g id="_x34_80-wordmark-slate"></g><g id="_x35_2-slate"></g><g id="_x31_20-blue"></g><g id="_x31_20-white"></g><g id="_x32_40-white"></g><g id="_x32_40-blue"></g><g id="_x32_40-slate"></g><g id="_x34_80-slate"></g><g id="_x34_80-blue"></g><g id="_x34_80-white"></g><g id="_x32_50-vert-white"></g><g id="_x32_50-vert-slate"></g><g id="_x32_50-vert-blue"></g><g id="_x35_00-vert-slate"></g><g id="_x35_00-vert-blue"></g><g id="_x35_00-vert-white"></g><g id="_x31_000-vert-slate"></g><g id="_x31_000-vert-blue"></g><g id="_x31_000-vert-white_1_"></g><g id="_x38_0-mark-white"><path id="mark_28_" class="st0" d="M13.3,0L0,7.7l0,17.6l0,0C0,33.4,6.5,40,14.6,40c2.7,0,5.2-0.7,7.4-1.9l0,0l10.8-6.2	C37.1,29.6,40,25.2,40,20l0-18.4l0,0l0,0l-2.6-1.5L26,6.2l0,0l0,0l0,19.2c0,0.8-0.1,1.6-0.2,2.4c-0.2,0.8-0.4,1.5-0.7,2.2	c-0.1,0.2-0.2,0.4-0.3,0.6c-0.4,0-2.9-0.9-4.2-1.8c-0.6-0.4-1.1-0.8-1.6-1.3c-0.5-0.5-0.9-1-1.3-1.6c-0.4-0.6-0.7-1.2-1-1.8	c-0.3-0.6-0.5-1.3-0.6-2C16,21.4,16,20.7,16,20l0,0l0-18.4L13.3,0z M19.8,36.2c-0.7,0.3-1.7,0.7-2.5,0.9c-0.8,0.2-1.5,0.2-2.3,0.2	c-0.8,0-1.6-0.1-2.4-0.3c-0.8-0.2-1.5-0.4-2.2-0.7c-0.7-0.3-1.4-0.7-2-1.1C6.6,34.1,5.7,33.1,5,32c-0.4-0.6-0.8-1.3-1.1-2	c-0.3-0.7-0.5-1.5-0.7-2.3C3,26.9,3,26.1,3,25.3L3,9.2l10-6.1V20h0c0,6.4,4.7,11.8,10.7,13.1c-0.2,0.3-0.4,0.6-0.7,0.8	C21.9,35,21,35.7,19.8,36.2z M36.8,22.2c-0.1,0.7-0.4,1.4-0.6,2c-0.3,0.6-0.6,1.2-1,1.8c-0.4,0.6-1.6,2.1-3.2,3	c-1.6,0.9-3.1,1.2-4,1.4c0.6-1.6,1-3.2,1-5l0,0V7.7l0,0l8-4.6L37,20C37,20.8,37,21.5,36.8,22.2z"/></g><g id="_x38_0-mark-blue"></g><g id="_x38_0-mark-slate"></g><g id="_x31_60-mark-blue"></g><g id="_x31_60-mark-white"></g><g id="_x31_60-mark-slate"></g><g id="_x33_20-mark-blue"></g><g id="_x33_20-mark-white"></g><g id="_x33_20-mark-slate"></g></svg>